<svg xmlns="http://www.w3.org/2000/svg" xmlns:xlink="http://www.w3.org/1999/xlink" version="1.1" width="2380" height="1250" style="width: 2380px; height: 1250px; background: #ffffff" viewBox="0 0 2380 1250"><style id="v-3" type="text/css">        .joint-element .scalable * {            vector-effect: non-scaling-stroke;        }    </style><defs joint-selector="defs"><marker id="v-21252848929" orient="auto" overflow="visible" markerUnits="userSpaceOnUse"><path id="v-91" stroke="#444444" fill="#444444" transform="rotate(180)" d="M 20 -10 0 0 20 10 Z"></path></marker></defs><g joint-selector="layers"  transform="matrix(1,0,0,1,0,0)"><g  style="pointer-events: none;"></g><g ></g><g  style="user-select: none;"><!--z-index:-2--><!--z-index:-1--><!--z-index:0--><!--z-index:1--><!--z-index:2--><!--z-index:3--><!--z-index:4--><!--z-index:5--><!--z-index:6--><!--z-index:7--><!--z-index:8--><!--z-index:9--><!--z-index:10--><!--z-index:11--><g   id="j_141"  transform="translate(20,1206)"><g id="v-1391"><text  id="v-1392" font-size="24px" xml:space="preserve" y="0.8em" font-weight="normal" text-anchor="start" fill="#444444" pointer-events="none" display="block" font-family="Tahoma, Verdana, Helvetica, Arial"><tspan dy="0" >Wednesday, May 6, 2026 at 9:57 AM Irish Standard Time</tspan></text></g></g><!--z-index:12--><g   id="j_140"  transform="translate(20,1172)"><g id="v-1389"><text  id="v-1390" font-size="24px" xml:space="preserve" y="0.8em" font-weight="normal" text-anchor="start" fill="#444444" pointer-events="none" display="block" font-family="Tahoma, Verdana, Helvetica, Arial"><tspan dy="0" >How users and external services interact with the feedback platform.</tspan></text></g></g><!--z-index:13--><g   id="j_139"  transform="translate(20,1126)"><g id="v-1387"><text  id="v-1388" font-size="36px" xml:space="preserve" y="0.8em" font-weight="normal" text-anchor="start" fill="#444444" pointer-events="none" display="block" font-family="Tahoma, Verdana, Helvetica, Arial"><tspan dy="0" >System Context View: DMTC Feedback API</tspan></text></g></g><!--z-index:14--><g   id="j_142"  transform="translate(199,143)" style=""><g  id="v-1399" style="opacity: 1;"><rect  x="0" y="160" width="400" height="240" rx="70" id="v-1401" stroke-width="2" pointer-events="visiblePainted" fill="#0b7285" stroke="#0a6778" stroke-dasharray="" style="fill: rgb(11, 114, 133); stroke: rgb(10, 103, 120);"></rect><circle  cx="200" cy="88.88888888888889" r="88.88888888888889" id="v-1400" stroke-width="2" pointer-events="visiblePainted" fill="#0b7285" stroke="#0a6778" stroke-dasharray="" style="fill: rgb(11, 114, 133); stroke: rgb(10, 103, 120);"></circle><line  x1="80" y1="266.6666666666667" x2="80" y2="400" id="v-1407" stroke="#0a6778" stroke-width="1" stroke-dasharray="" style="stroke: rgb(10, 103, 120);"></line><line  x1="320" y1="266.6666666666667" x2="320" y2="400" id="v-1408" stroke="#0a6778" stroke-width="1" stroke-dasharray="" style="stroke: rgb(10, 103, 120);"></line><text  id="v-1402" font-size="46.199999999999996px" xml:space="preserve" y="177.75" font-weight="bold" text-anchor="middle" pointer-events="visible" font-family="Tahoma, Verdana, Helvetica, Arial" fill="#ffffff" dominant-baseline="hanging" transform="matrix(1,0,0,1,200,0)" style="fill: rgb(255, 255, 255);"><tspan dy="0" >API Consumer</tspan></text><text  id="v-1403" font-size="23.099999999999998px" xml:space="preserve" y="231.95" text-anchor="middle" font-family="Tahoma, Verdana, Helvetica, Arial" fill="#ffffff" dominant-baseline="hanging" transform="matrix(1,0,0,1,200,0)" style="display: block; fill: rgb(255, 255, 255);"><tspan dy="0" >[Person]</tspan></text><text  id="v-1404" font-size="33px" xml:space="preserve" y="270.05" text-anchor="middle" font-family="Tahoma, Verdana, Helvetica, Arial" fill="#ffffff" dominant-baseline="hanging" transform="matrix(1,0,0,1,200,0)" style="display: block; fill: rgb(255, 255, 255);"><tspan dy="0" >Submits feedback and</tspan><tspan dy="1.2em" x="0" >reads project-scoped</tspan><tspan dy="1.2em" x="0" >feedback threads.</tspan></text><g  id="v-1405" font-weight="normal" text-anchor="middle" color="#ffffff" transform="matrix(1,0,0,1,197.5,368)" display="none" style="fill: rgb(255, 255, 255);"><g ></g><g ></g><g ></g><g ></g></g><image  id="v-1406"></image></g></g><!--z-index:15--><g   id="j_143"  transform="translate(199,593)" style=""><g  id="v-1415" style="opacity: 1;"><rect  x="0" y="160" width="400" height="240" rx="70" id="v-1417" stroke-width="2" pointer-events="visiblePainted" fill="#0b7285" stroke="#0a6778" stroke-dasharray="" style="fill: rgb(11, 114, 133); stroke: rgb(10, 103, 120);"></rect><circle  cx="200" cy="88.88888888888889" r="88.88888888888889" id="v-1416" stroke-width="2" pointer-events="visiblePainted" fill="#0b7285" stroke="#0a6778" stroke-dasharray="" style="fill: rgb(11, 114, 133); stroke: rgb(10, 103, 120);"></circle><line  x1="80" y1="266.6666666666667" x2="80" y2="400" id="v-1423" stroke="#0a6778" stroke-width="1" stroke-dasharray="" style="stroke: rgb(10, 103, 120);"></line><line  x1="320" y1="266.6666666666667" x2="320" y2="400" id="v-1424" stroke="#0a6778" stroke-width="1" stroke-dasharray="" style="stroke: rgb(10, 103, 120);"></line><text  id="v-1418" font-size="46.199999999999996px" xml:space="preserve" y="177.75" font-weight="bold" text-anchor="middle" pointer-events="visible" font-family="Tahoma, Verdana, Helvetica, Arial" fill="#ffffff" dominant-baseline="hanging" transform="matrix(1,0,0,1,200,0)" style="fill: rgb(255, 255, 255);"><tspan dy="0" >Admin User</tspan></text><text  id="v-1419" font-size="23.099999999999998px" xml:space="preserve" y="231.95" text-anchor="middle" font-family="Tahoma, Verdana, Helvetica, Arial" fill="#ffffff" dominant-baseline="hanging" transform="matrix(1,0,0,1,200,0)" style="display: block; fill: rgb(255, 255, 255);"><tspan dy="0" >[Person]</tspan></text><text  id="v-1420" font-size="33px" xml:space="preserve" y="270.05" text-anchor="middle" font-family="Tahoma, Verdana, Helvetica, Arial" fill="#ffffff" dominant-baseline="hanging" transform="matrix(1,0,0,1,200,0)" style="display: block; fill: rgb(255, 255, 255);"><tspan dy="0" >Manages feedback,</tspan><tspan dy="1.2em" x="0" >projects, API keys, and</tspan><tspan dy="1.2em" x="0" >reference metadata.</tspan></text><g  id="v-1421" font-weight="normal" text-anchor="middle" color="#ffffff" transform="matrix(1,0,0,1,197.5,368)" display="none" style="fill: rgb(255, 255, 255);"><g ></g><g ></g><g ></g><g ></g></g><image  id="v-1422"></image></g></g><!--z-index:16--><g   id="j_144"  transform="translate(1729,243)" style=""><g  id="v-1428" style="opacity: 1;"><rect  id="v-1429" rx="20" ry="20" stroke-width="2" pointer-events="visiblePainted" fill="#1971c2" stroke="#1766af" stroke-dasharray="" width="450" height="300" style="fill: rgb(25, 113, 194); stroke: rgb(23, 102, 175);"></rect><text  id="v-1430" font-size="44.8px" xml:space="preserve" y="50.5" font-weight="bold" text-anchor="middle" pointer-events="visible" font-family="Tahoma, Verdana, Helvetica, Arial" fill="#ffffff" dominant-baseline="hanging" transform="matrix(1,0,0,1,225,0)" style="fill: rgb(255, 255, 255);"><tspan dy="0" >GitLab</tspan></text><text  id="v-1431" font-size="22.4px" xml:space="preserve" y="103.3" text-anchor="middle" font-family="Tahoma, Verdana, Helvetica, Arial" fill="#ffffff" dominant-baseline="hanging" transform="matrix(1,0,0,1,225,0)" style="display: block; fill: rgb(255, 255, 255);"><tspan dy="0" >[Software System]</tspan></text><text  id="v-1432" font-size="32px" xml:space="preserve" y="140.7" text-anchor="middle" font-family="Tahoma, Verdana, Helvetica, Arial" fill="#ffffff" dominant-baseline="hanging" transform="matrix(1,0,0,1,225,0)" style="display: block; fill: rgb(255, 255, 255);"><tspan dy="0" >Receives promoted</tspan><tspan dy="1.2em" x="0" >feedback as issues and</tspan><tspan dy="1.2em" x="0" >follow-up updates.</tspan></text><g  id="v-1433" color="#ffffff" transform="matrix(1,0,0,1,222.5,268)" display="none" style="fill: rgb(255, 255, 255);"><g ></g><g ></g><g ></g><g ></g></g><image  id="v-1434"></image></g></g><!--z-index:17--><g   id="j_145"  transform="translate(1729,593)" style=""><g  id="v-1441" style="opacity: 1;"><rect  id="v-1442" rx="20" ry="20" stroke-width="2" pointer-events="visiblePainted" fill="#1971c2" stroke="#1766af" stroke-dasharray="" width="450" height="300" style="fill: rgb(25, 113, 194); stroke: rgb(23, 102, 175);"></rect><text  id="v-1443" font-size="44.8px" xml:space="preserve" y="50.5" font-weight="bold" text-anchor="middle" pointer-events="visible" font-family="Tahoma, Verdana, Helvetica, Arial" fill="#ffffff" dominant-baseline="hanging" transform="matrix(1,0,0,1,225,0)" style="fill: rgb(255, 255, 255);"><tspan dy="0" >SMTP Provider</tspan></text><text  id="v-1444" font-size="22.4px" xml:space="preserve" y="103.3" text-anchor="middle" font-family="Tahoma, Verdana, Helvetica, Arial" fill="#ffffff" dominant-baseline="hanging" transform="matrix(1,0,0,1,225,0)" style="display: block; fill: rgb(255, 255, 255);"><tspan dy="0" >[Software System]</tspan></text><text  id="v-1445" font-size="32px" xml:space="preserve" y="140.7" text-anchor="middle" font-family="Tahoma, Verdana, Helvetica, Arial" fill="#ffffff" dominant-baseline="hanging" transform="matrix(1,0,0,1,225,0)" style="display: block; fill: rgb(255, 255, 255);"><tspan dy="0" >Delivers notification emails</tspan><tspan dy="1.2em" x="0" >when admins reply to</tspan><tspan dy="1.2em" x="0" >feedback.</tspan></text><g  id="v-1446" color="#ffffff" transform="matrix(1,0,0,1,222.5,268)" display="none" style="fill: rgb(255, 255, 255);"><g ></g><g ></g><g ></g><g ></g></g><image  id="v-1447"></image></g></g><!--z-index:18--><g   id="j_146"  transform="translate(939,418)" style=""><g  id="v-1454" style="opacity: 1;"><rect  id="v-1455" rx="20" ry="20" stroke-width="2" pointer-events="visiblePainted" fill="#1971c2" stroke="#1766af" stroke-dasharray="" width="450" height="300" style="fill: rgb(25, 113, 194); stroke: rgb(23, 102, 175);"></rect><text  id="v-1456" font-size="44.8px" xml:space="preserve" y="23.620000000000005" font-weight="bold" text-anchor="middle" pointer-events="visible" font-family="Tahoma, Verdana, Helvetica, Arial" fill="#ffffff" dominant-baseline="hanging" transform="matrix(1,0,0,1,225,0)" style="fill: rgb(255, 255, 255);"><tspan dy="0" >DMTC Feedback</tspan><tspan dy="1.2em" x="0" >API</tspan></text><text  id="v-1457" font-size="22.4px" xml:space="preserve" y="130.18" text-anchor="middle" font-family="Tahoma, Verdana, Helvetica, Arial" fill="#ffffff" dominant-baseline="hanging" transform="matrix(1,0,0,1,225,0)" style="display: block; fill: rgb(255, 255, 255);"><tspan dy="0" >[Software System]</tspan></text><text  id="v-1458" font-size="32px" xml:space="preserve" y="167.58" text-anchor="middle" font-family="Tahoma, Verdana, Helvetica, Arial" fill="#ffffff" dominant-baseline="hanging" transform="matrix(1,0,0,1,225,0)" style="display: block; fill: rgb(255, 255, 255);"><tspan dy="0" >Next.js-based headless</tspan><tspan dy="1.2em" x="0" >feedback management</tspan><tspan dy="1.2em" x="0" >backend.</tspan></text><g  id="v-1459" color="#ffffff" transform="matrix(1,0,0,1,210,268)" display="none" style="fill: rgb(255, 255, 255);"><g  transform="translate(5 0)"><svg xmlns="http://www.w3.org/2000/svg" width="20" height="20" fill="currentColor" viewBox="0 0 16 16"><path fill-rule="evenodd" d="M6.5 12a5.5 5.5 0 1 0 0-11 5.5 5.5 0 0 0 0 11zM13 6.5a6.5 6.5 0 1 1-13 0 6.5 6.5 0 0 1 13 0z"></path><path d="M10.344 11.742c.03.04.062.078.098.115l3.85 3.85a1 1 0 0 0 1.415-1.414l-3.85-3.85a1.007 1.007 0 0 0-.115-.1 6.538 6.538 0 0 1-1.398 1.4z"></path><path fill-rule="evenodd" d="M6.5 3a.5.5 0 0 1 .5.5V6h2.5a.5.5 0 0 1 0 1H7v2.5a.5.5 0 0 1-1 0V7H3.5a.5.5 0 0 1 0-1H6V3.5a.5.5 0 0 1 .5-.5z"></path></svg></g><g ></g><g ></g><g ></g></g><image  id="v-1460"></image></g></g><!--z-index:19--><g   id="j_147"  style="opacity: 1;"><path fill="none" cursor="pointer" stroke="transparent" stroke-linecap="round" joint-selector="wrapper" id="v-1472" stroke-width="10" stroke-linejoin="round" d="M 599 343 L 759 343 C 765.6666666666666 343 772 344.66666666666663 778 348 L 939 439.84"></path><path fill="none" pointer-events="none" joint-selector="line" id="v-1471" stroke="#444444" stroke-width="2" stroke-linejoin="round" stroke-dasharray="8 8" d="M 599 343 L 759 343 C 765.6666666666666 343 772 344.66666666666663 778 348 L 939 439.84" marker-end="url(#v-21252848929)"></path><g id="v-1464" ><g id="v-1465"  label-idx="0" cursor="move" transform="matrix(1,0,0,1,768.712890625,344.2402648925781)" style="cursor: default;"><rect joint-selector="rect" id="v-1468" fill="#ffffff" rx="3" ry="3" x="-79.30706024169922" y="-57.313472747802734" width="158.7964324951172" height="112.28064727783203" pointer-events="none"  style="display: block;"></rect><text joint-selector="text" id="v-1467" font-size="24px" xml:space="preserve" fill="#444444" text-anchor="middle" pointer-events="none" font-family="Tahoma, Verdana, Helvetica, Arial" font-weight="normal"  style="display: block;"><tspan dy="-1.4999999999999998em" >Uses feedback</tspan><tspan dy="1.2em" x="0" >endpoints via</tspan><tspan dy="1.2em" x="0" >x-api-key over</tspan><tspan dy="1.2em" x="0" >HTTPS</tspan></text></g><g id="v-1466"  label-idx="1" cursor="move" transform="matrix(1,0,0,1,758.712890625,399.44024658203125)" style="cursor: default;"><rect joint-selector="rect" id="v-1470" fill="#ffffff" rx="3" ry="3" x="0" y="0" width="0" height="0"  display="none"></rect><text joint-selector="text" id="v-1469" fill="#000000" font-size="14" text-anchor="middle" text-vertical-anchor="middle" pointer-events="none"></text></g></g></g><!--z-index:20--><g   id="j_148"  style="opacity: 1;"><path fill="none" cursor="pointer" stroke="transparent" stroke-linecap="round" joint-selector="wrapper" id="v-1484" stroke-width="10" stroke-linejoin="round" d="M 599 793 L 759 793 C 765.6666666666666 793 772 791.3333333333333 778 788 L 939 696.16"></path><path fill="none" pointer-events="none" joint-selector="line" id="v-1483" stroke="#444444" stroke-width="2" stroke-linejoin="round" stroke-dasharray="8 8" d="M 599 793 L 759 793 C 765.6666666666666 793 772 791.3333333333333 778 788 L 939 696.16" marker-end="url(#v-21252848929)"></path><g id="v-1476" ><g id="v-1477"  label-idx="0" cursor="move" transform="matrix(1,0,0,1,768.712890625,791.759765625)" style="cursor: default;"><rect joint-selector="rect" id="v-1480" fill="#ffffff" rx="3" ry="3" x="-78.65290832519531" y="-86.11347198486328" width="157.30581665039062" height="169.88064575195312" pointer-events="none"  style="display: block;"></rect><text joint-selector="text" id="v-1479" font-size="24px" xml:space="preserve" fill="#444444" text-anchor="middle" pointer-events="none" font-family="Tahoma, Verdana, Helvetica, Arial" font-weight="normal"  style="display: block;"><tspan dy="-2.7em" >Uses admin</tspan><tspan dy="1.2em" x="0" >feedback and</tspan><tspan dy="1.2em" x="0" >bootstrap</tspan><tspan dy="1.2em" x="0" >management</tspan><tspan dy="1.2em" x="0" >endpoints over</tspan><tspan dy="1.2em" x="0" >HTTPS</tspan></text></g><g id="v-1478"  label-idx="1" cursor="move" transform="matrix(1,0,0,1,758.712890625,875.759765625)" style="cursor: default;"><rect joint-selector="rect" id="v-1482" fill="#ffffff" rx="3" ry="3" x="0" y="0" width="0" height="0"  display="none"></rect><text joint-selector="text" id="v-1481" fill="#000000" font-size="14" text-anchor="middle" text-vertical-anchor="middle" pointer-events="none"></text></g></g></g><!--z-index:21--><g   id="j_149"  style="opacity: 1;"><path fill="none" cursor="pointer" stroke="transparent" stroke-linecap="round" joint-selector="wrapper" id="v-1496" stroke-width="10" stroke-linejoin="round" d="M 1389 468.32 L 1550 397 C 1556 394.3333333333333 1562.3333333333333 393 1569 393 L 1729 393"></path><path fill="none" pointer-events="none" joint-selector="line" id="v-1495" stroke="#444444" stroke-width="2" stroke-linejoin="round" stroke-dasharray="8 8" d="M 1389 468.32 L 1550 397 C 1556 394.3333333333333 1562.3333333333333 393 1569 393 L 1729 393" marker-end="url(#v-21252848929)"></path><g id="v-1488" ><g id="v-1489"  label-idx="0" cursor="move" transform="matrix(1,0,0,1,1559.212890625,394.0078125)" style="cursor: default;"><rect joint-selector="rect" id="v-1492" fill="#ffffff" rx="3" ry="3" x="-96.6480484008789" y="-42.91347122192383" width="193.2960968017578" height="83.48065185546875" pointer-events="none"  style="display: block;"></rect><text joint-selector="text" id="v-1491" font-size="24px" xml:space="preserve" fill="#444444" text-anchor="middle" pointer-events="none" font-family="Tahoma, Verdana, Helvetica, Arial" font-weight="normal"  style="display: block;"><tspan dy="-0.8999999999999999em" >Creates and</tspan><tspan dy="1.2em" x="0" >updates promoted</tspan><tspan dy="1.2em" x="0" >issues via API</tspan></text></g><g id="v-1490"  label-idx="1" cursor="move" transform="matrix(1,0,0,1,1549.212890625,434.8078308105469)" style="cursor: default;"><rect joint-selector="rect" id="v-1494" fill="#ffffff" rx="3" ry="3" x="0" y="0" width="0" height="0"  display="none"></rect><text joint-selector="text" id="v-1493" fill="#000000" font-size="14" text-anchor="middle" text-vertical-anchor="middle" pointer-events="none"></text></g></g></g><!--z-index:22--><g   id="j_150"  style="opacity: 1;"><path fill="none" cursor="pointer" stroke="transparent" stroke-linecap="round" joint-selector="wrapper" id="v-1508" stroke-width="10" stroke-linejoin="round" d="M 1389 667.68 L 1550 739 C 1556 741.6666666666666 1562.3333333333333 743 1569 743 L 1729 743"></path><path fill="none" pointer-events="none" joint-selector="line" id="v-1507" stroke="#444444" stroke-width="2" stroke-linejoin="round" stroke-dasharray="8 8" d="M 1389 667.68 L 1550 739 C 1556 741.6666666666666 1562.3333333333333 743 1569 743 L 1729 743" marker-end="url(#v-21252848929)"></path><g id="v-1500" ><g id="v-1501"  label-idx="0" cursor="move" transform="matrix(1,0,0,1,1559.212890625,741.9921875)" style="cursor: default;"><rect joint-selector="rect" id="v-1504" fill="#ffffff" rx="3" ry="3" x="-95.29216766357422" y="-42.91347122192383" width="190.77053833007812" height="83.48065185546875" pointer-events="none"  style="display: block;"></rect><text joint-selector="text" id="v-1503" font-size="24px" xml:space="preserve" fill="#444444" text-anchor="middle" pointer-events="none" font-family="Tahoma, Verdana, Helvetica, Arial" font-weight="normal"  style="display: block;"><tspan dy="-0.8999999999999999em" >Sends reply</tspan><tspan dy="1.2em" x="0" >notification emails</tspan><tspan dy="1.2em" x="0" >via SMTP</tspan></text></g><g id="v-1502"  label-idx="1" cursor="move" transform="matrix(1,0,0,1,1549.212890625,782.7921752929688)" style="cursor: default;"><rect joint-selector="rect" id="v-1506" fill="#ffffff" rx="3" ry="3" x="0" y="0" width="0" height="0"  display="none"></rect><text joint-selector="text" id="v-1505" fill="#000000" font-size="14" text-anchor="middle" text-vertical-anchor="middle" pointer-events="none"></text></g></g></g><!--z-index:23--><!--z-index:24--><!--z-index:25--><!--z-index:26--><!--z-index:27--><!--z-index:28--><!--z-index:29--></g><g  style="user-select: none;"></g><g ></g><g  display="none"></g></g></svg>